<?xml version="1.0" standalone="no"?>
<!DOCTYPE svg PUBLIC "-//W3C//DTD SVG 20010904//EN"
 "http://www.w3.org/TR/2001/REC-SVG-20010904/DTD/svg10.dtd">
<svg version="1.0" xmlns="http://www.w3.org/2000/svg"
 width="1628.000000pt" height="1628.000000pt" viewBox="0 0 1628.000000 1628.000000"
 preserveAspectRatio="xMidYMid meet">
<metadata>
Created by potrace 1.11, written by Peter Selinger 2001-2013
</metadata>
<g transform="translate(0.000000,1628.000000) scale(0.100000,-0.100000)"
fill="#000000" stroke="none">
<path d="M7848 16215 c-2 -1 -68 -5 -148 -9 -80 -3 -158 -8 -175 -10 -16 -2
-70 -7 -120 -11 -49 -3 -101 -8 -115 -10 -14 -2 -50 -6 -80 -9 -76 -8 -142
-17 -235 -31 -16 -3 -48 -7 -70 -10 -22 -3 -51 -7 -65 -10 -38 -7 -81 -15
-120 -21 -19 -3 -80 -15 -135 -26 -55 -11 -111 -21 -125 -23 -54 -8 -374 -89
-545 -137 -174 -50 -638 -205 -710 -238 -11 -5 -87 -37 -170 -70 -82 -34 -179
-76 -215 -92 -36 -17 -108 -50 -160 -75 -52 -24 -102 -47 -110 -52 -8 -4 -82
-43 -165 -86 -82 -43 -151 -82 -153 -87 -2 -4 -12 -8 -23 -8 -10 0 -19 -4 -19
-10 0 -5 -4 -10 -9 -10 -16 0 -440 -256 -486 -292 -5 -5 -69 -49 -142 -98 -73
-49 -140 -96 -150 -104 -10 -8 -74 -56 -143 -108 -184 -138 -291 -226 -530
-437 -112 -99 -494 -481 -595 -595 -39 -43 -75 -84 -80 -90 -112 -119 -525
-651 -525 -676 0 -4 -4 -10 -9 -12 -10 -4 -182 -260 -266 -398 -108 -177 -231
-395 -306 -545 -22 -44 -44 -87 -49 -95 -33 -54 -216 -466 -278 -625 -17 -44
-42 -109 -55 -145 -88 -228 -243 -734 -273 -890 -3 -14 -14 -61 -26 -105 -11
-44 -22 -91 -24 -105 -3 -14 -13 -65 -24 -115 -10 -49 -21 -108 -24 -130 -4
-23 -9 -52 -11 -65 -8 -38 -25 -141 -30 -175 -4 -28 -11 -77 -20 -135 -4 -24
-7 -51 -20 -170 -3 -30 -7 -68 -10 -85 -3 -16 -7 -64 -11 -105 -3 -41 -7 -93
-9 -115 -25 -246 -26 -991 -1 -1245 2 -19 7 -72 11 -118 3 -45 8 -93 10 -105
2 -12 6 -52 10 -89 3 -37 8 -77 10 -90 2 -13 6 -45 10 -73 3 -27 8 -63 11 -80
3 -16 7 -41 8 -55 2 -14 6 -41 10 -60 10 -57 16 -93 21 -130 3 -19 8 -46 11
-60 3 -14 8 -36 10 -50 10 -58 73 -349 94 -430 37 -144 113 -408 157 -545 69
-211 192 -539 254 -672 10 -24 19 -45 19 -47 0 -5 46 -104 122 -266 62 -131
230 -449 294 -557 10 -18 41 -69 68 -115 134 -228 467 -705 631 -903 120 -145
200 -241 205 -245 3 -3 45 -50 94 -105 163 -182 536 -547 711 -696 22 -19 42
-36 45 -39 16 -17 240 -197 330 -265 57 -44 109 -84 115 -88 173 -136 668
-453 920 -589 156 -85 524 -264 680 -331 230 -99 694 -269 825 -303 8 -2 78
-22 155 -44 77 -22 156 -44 175 -50 30 -8 120 -29 340 -80 51 -12 81 -18 125
-25 17 -3 53 -10 80 -15 77 -15 217 -39 250 -44 17 -2 50 -7 75 -11 78 -11 94
-14 150 -20 30 -4 69 -8 85 -10 17 -2 59 -7 95 -10 36 -3 83 -8 105 -11 252
-33 1080 -39 1355 -9 19 2 75 6 125 10 49 4 97 8 105 10 9 2 46 6 82 9 37 4
75 8 85 10 10 2 43 7 74 10 31 4 67 9 80 11 13 3 42 7 64 10 68 9 168 26 174
29 3 2 29 7 56 11 126 16 568 120 770 180 66 20 129 38 140 40 90 20 625 216
790 289 17 8 75 33 130 57 94 40 577 280 599 298 6 4 36 22 66 38 176 97 501
298 508 316 2 4 8 7 12 7 7 0 215 140 255 172 6 5 61 46 123 93 160 120 411
324 462 375 3 3 46 41 95 84 108 95 480 467 585 585 41 46 80 89 85 95 9 10
55 64 203 241 147 177 466 626 583 823 9 15 41 69 73 120 31 51 56 95 56 98 0
2 11 21 24 42 54 82 232 428 316 612 23 52 56 124 72 159 111 245 273 700 362
1019 39 139 106 402 120 472 3 14 7 36 10 50 3 14 13 63 21 110 9 47 20 105
25 130 6 25 12 61 15 80 3 19 8 42 10 50 2 8 6 38 9 65 7 52 24 182 31 223 2
13 7 53 11 90 3 37 8 75 10 85 2 11 6 58 10 105 3 48 8 103 10 122 12 108 19
354 18 645 -1 342 -8 511 -30 721 -6 59 -11 106 -18 189 -4 33 -8 71 -10 85
-3 14 -7 48 -11 75 -5 47 -20 142 -31 210 -3 17 -7 44 -10 60 -3 17 -7 37 -9
45 -2 8 -6 33 -10 55 -10 68 -35 194 -67 330 -17 72 -31 135 -32 140 -1 6 -5
19 -9 30 -3 11 -8 31 -11 45 -38 202 -258 855 -386 1145 -10 22 -24 56 -32 75
-52 125 -210 447 -314 640 -251 466 -651 1037 -1013 1450 -122 139 -186 205
-381 400 -371 370 -703 648 -1120 936 -136 94 -378 249 -414 266 -14 6 -26 15
-26 20 0 4 -4 8 -9 8 -5 0 -64 32 -130 70 -67 39 -126 70 -131 70 -4 0 -10 3
-12 8 -9 21 -546 278 -793 380 -341 139 -755 275 -1106 361 -240 59 -242 59
-439 96 -77 14 -148 28 -159 30 -10 2 -36 6 -57 10 -22 3 -50 7 -64 10 -59 9
-185 27 -214 30 -17 2 -71 8 -121 14 -49 5 -119 12 -155 15 -36 3 -94 8 -130
12 -36 3 -99 7 -140 10 -86 5 -767 13 -772 9z"/>
</g>
</svg>
