<?xml version="1.0" encoding="utf-8"?>
<svg version="1.1" id="Layer_1" x="0px" y="0px" viewBox="0 0 1080 600" style="enable-background:new 0 0 1080 600;" xmlns="http://www.w3.org/2000/svg">
  <style type="text/css">
	.st0{fill:#FFFFFF;stroke:#FFFFFF;stroke-width:25.816;stroke-miterlimit:10;}
	.st1{fill:#4679B6;}
</style>
  <g style="" transform="matrix(0.998616, 0, 0, 0.984086, 0.094833, -0.733582)">
    <text transform="matrix(1 0 0 1 456.0286 -33.425)" style="font-family: FSKoopmanTrial-Bold; font-size: 14px; white-space: pre;">All Round Gothic Demi</text>
    <g>
      <path class="st0" d="M650.2,348.1"/>
    </g>
    <g>
      <path class="st0" d="M668.2,376.7"/>
    </g>
    <g>
      <path d="M68.5,98.3h27.5v56.4h67.2V98.3h27.5v140.3h-27.5V180H95.9v58.6H68.5V98.3z"/>
      <path d="M204.1,182.8V98.3h27.5v84.5c0,20.8,10.7,33.3,32,33.3c21.7,0,32.2-12.4,32.2-33.3V98.3h26.8v84.5 c0,35.8-21,58.6-58.8,58.6C225.4,241.4,204.1,218.9,204.1,182.8z"/>
      <path d="M338,148.3c0-36,21.2-52.8,48.9-52.8c17.8,0,31.8,7.5,39.9,21.5c8.2-13.9,22.1-21.5,39.9-21.5 c27.7,0,48.9,16.7,48.9,52.8v90.3h-27.5v-90.3c0-19.3-10.3-27.2-23.8-27.2c-13.5,0-23.8,8.2-23.8,27.2v90.3h-27.5v-90.3 c0-19.1-10.3-27.2-23.8-27.2c-13.5,0-23.8,7.9-23.8,27.2v90.3H338V148.3z"/>
      <path d="M533.7,98.3h103.4v25.5h-76v31.3h63.5v24.5h-63.5v33.7h76v25.3H533.7V98.3z"/>
      <path d="M338.6,352.2v-90.3h27.5v90.3c0,19.3,10.3,27.2,23.8,27.2c13.5,0,23.8-8.2,23.8-27.2v-90.3h27.5v90.3 c0,19.1,10.3,27.2,23.8,27.2c13.5,0,23.8-7.9,23.8-27.2v-90.3h27.5v90.3c0,36-21.2,52.8-48.9,52.8c-17.8,0-31.8-7.5-39.9-21.5 c-8.2,13.9-22.1,21.5-39.9,21.5C359.9,405,338.6,388.3,338.6,352.2z"/>
      <path d="M530.3,332c0-42.1,30.9-72.9,74.7-72.9c43.8,0,74.7,30.9,74.7,72.9S648.7,405,605,405C561.2,405,530.3,374.1,530.3,332z M651.7,332c0-27.5-18.9-47.4-46.8-47.4c-27.9,0-46.8,20-46.8,47.4s18.9,47.6,46.8,47.6C632.8,379.7,651.7,359.5,651.7,332z"/>
      <path d="M691.6,261.9h58.8c35.6,0,51.3,19.5,51.3,46.3c0,22.1-10.5,37.3-29.4,43.6l34.5,50.4h-32.6l-29.8-47.4h-25.3v47.4h-27.5 V261.9z M750.8,329.3c17.4,0,23.2-9,23.2-21c0-12-5.8-20.8-23.2-20.8h-31.8v41.8H750.8z"/>
      <path d="M819.2,261.9h27.5v61.4l50.2-61.4h34.5l-59.6,68.9l61.8,71.4h-35.4l-51.5-63.1v63.1h-27.5V261.9z"/>
      <path d="M927.3,361.7h26.8c0.2,11.2,8.6,18.7,25.3,18.7c16.9,0,25.3-7.5,25.3-18.7c0-12.2-13.1-14.6-28.3-17.4 c-21.2-3.9-46.3-8.4-46.3-41c0-26,19.7-44.2,49.6-44.2c29,0,48.5,17.4,49.6,43.1h-26c-0.2-10.7-8.2-18.5-23.4-18.5 c-15.4,0-23.2,8.4-23.2,18.7c0,12.2,13.1,14.6,28.3,17.4c21.2,3.9,46.6,8.4,46.6,41c0,27.3-20.8,44.2-52.1,44.2 C948.3,405,927.9,388.5,927.3,361.7z"/>
    </g>
    <g>
      <path class="st1" d="M653.9,222.9c0-9.9,7.5-17.4,17.4-17.4c9.9,0,17.4,7.5,17.4,17.4c0,9.9-7.5,17.4-17.4,17.4 C661.4,240.3,653.9,232.8,653.9,222.9z"/>
    </g>
    <g/>
  </g>
</svg>