<?xml version="1.0" encoding="utf-8"?>
<!-- Generator: Adobe Illustrator 24.3.0, SVG Export Plug-In . SVG Version: 6.00 Build 0)  -->
<svg version="1.1" id="Layer_1" xmlns="http://www.w3.org/2000/svg" xmlns:xlink="http://www.w3.org/1999/xlink" x="0px" y="0px"
	 viewBox="0 0 2077.2 387.4" style="enable-background:new 0 0 2077.2 387.4;" xml:space="preserve">
<style type="text/css">
	.st0{fill:#FFFFFF;stroke:#FFFFFF;stroke-width:25.816;stroke-miterlimit:10;}
	.st1{fill:#007191;}
	.st2{fill:none;stroke:#007191;stroke-width:15;stroke-miterlimit:10;}
</style>
<g>
	<path class="st0" d="M650.2,290.8"/>
</g>
<g>
	<path class="st0" d="M668.2,319.3"/>
</g>
<g>
	<path d="M68.5,40.9h27.5v56.4h67.2V40.9h27.5v140.3h-27.5v-58.6H95.9v58.6H68.5V40.9z"/>
	<path d="M204.1,125.4V40.9h27.5v84.5c0,20.8,10.7,33.3,32,33.3c21.7,0,32.2-12.4,32.2-33.3V40.9h26.8v84.5
		c0,35.8-21,58.6-58.8,58.6C225.4,184,204.1,161.5,204.1,125.4z"/>
	<path d="M338,90.9c0-36,21.2-52.8,48.9-52.8c17.8,0,31.8,7.5,39.9,21.5c8.2-13.9,22.1-21.5,39.9-21.5c27.7,0,48.9,16.7,48.9,52.8
		v90.3h-27.5V90.9c0-19.3-10.3-27.2-23.8-27.2c-13.5,0-23.8,8.2-23.8,27.2v90.3h-27.5V90.9c0-19.1-10.3-27.2-23.8-27.2
		c-13.5,0-23.8,7.9-23.8,27.2v90.3H338V90.9z"/>
	<path d="M533.7,40.9h103.4v25.5h-76v31.3h63.5v24.5h-63.5v33.7h76v25.3H533.7V40.9z"/>
	<path d="M338.6,294.8v-90.3h27.5v90.3c0,19.3,10.3,27.2,23.8,27.2c13.5,0,23.8-8.2,23.8-27.2v-90.3h27.5v90.3
		c0,19.1,10.3,27.2,23.8,27.2c13.5,0,23.8-7.9,23.8-27.2v-90.3h27.5v90.3c0,36-21.2,52.8-48.9,52.8c-17.8,0-31.8-7.5-39.9-21.5
		c-8.2,13.9-22.1,21.5-39.9,21.5C359.9,347.6,338.6,330.9,338.6,294.8z"/>
	<path d="M530.3,274.7c0-42.1,30.9-72.9,74.7-72.9c43.8,0,74.7,30.9,74.7,72.9s-30.9,72.9-74.7,72.9
		C561.2,347.6,530.3,316.7,530.3,274.7z M651.7,274.7c0-27.5-18.9-47.4-46.8-47.4c-27.9,0-46.8,20-46.8,47.4s18.9,47.6,46.8,47.6
		C632.8,322.3,651.7,302.1,651.7,274.7z"/>
	<path d="M691.6,204.5h58.8c35.6,0,51.3,19.5,51.3,46.3c0,22.1-10.5,37.3-29.4,43.6l34.5,50.4h-32.6l-29.8-47.4h-25.3v47.4h-27.5
		V204.5z M750.8,271.9c17.4,0,23.2-9,23.2-21c0-12-5.8-20.8-23.2-20.8h-31.8v41.8H750.8z"/>
	<path d="M819.2,204.5h27.5v61.4l50.2-61.4h34.5l-59.6,68.9l61.8,71.4h-35.4l-51.5-63.1v63.1h-27.5V204.5z"/>
	<path d="M927.3,304.3h26.8c0.2,11.2,8.6,18.7,25.3,18.7c16.9,0,25.3-7.5,25.3-18.7c0-12.2-13.1-14.6-28.3-17.4
		c-21.2-3.9-46.3-8.4-46.3-41c0-26,19.7-44.2,49.6-44.2c29,0,48.5,17.4,49.6,43.1h-26c-0.2-10.7-8.2-18.5-23.4-18.5
		c-15.4,0-23.2,8.4-23.2,18.7c0,12.2,13.1,14.6,28.3,17.4c21.2,3.9,46.6,8.4,46.6,41c0,27.3-20.8,44.2-52.1,44.2
		C948.3,347.6,927.9,331.1,927.3,304.3z"/>
</g>
<g>
	<path class="st1" d="M653.9,165.5c0-9.9,7.5-17.4,17.4-17.4c9.9,0,17.4,7.5,17.4,17.4c0,9.9-7.5,17.4-17.4,17.4
		C661.4,183,653.9,175.5,653.9,165.5z"/>
</g>
<g>
	<path d="M1173.5,219.3v-46.8h-16.6v-10.4h44v10.4h-16.6v46.8H1173.5z"/>
	<path d="M1241.6,219.3l-11.8-19.3h-10v19.3h-10.9v-57.2h23.3c3.5,0,6.5,0.5,9.1,1.4c2.5,0.9,4.7,2.2,6.3,3.9c1.7,1.7,2.9,3.7,3.7,6
		c0.8,2.3,1.2,4.8,1.2,7.6c0,4.2-0.9,7.9-2.8,11c-1.9,3.1-4.8,5.3-8.8,6.7v0.2l13.6,20.5H1241.6z M1232.4,189.6
		c3.5,0,5.8-0.8,7.2-2.4c1.3-1.6,2-3.7,2-6.1s-0.7-4.5-2-6.1c-1.3-1.6-3.7-2.4-7.2-2.4h-12.6v17H1232.4z"/>
	<path d="M1297.1,162.1h10.6v34.4c0,3.7-0.5,7-1.5,9.9c-1,2.9-2.5,5.5-4.5,7.5c-2,2.1-4.4,3.7-7.3,4.8c-2.9,1.1-6.2,1.7-9.9,1.7
		c-3.8,0-7.2-0.6-10.1-1.7c-2.9-1.1-5.4-2.7-7.4-4.8c-2-2.1-3.5-4.6-4.5-7.5c-1-2.9-1.6-6.3-1.6-9.9v-34.4h10.9v34.4
		c0,4.3,1,7.6,3.1,10c2.1,2.4,5.3,3.6,9.5,3.6c4.3,0,7.5-1.2,9.6-3.6c2.1-2.4,3.1-5.7,3.1-10V162.1z"/>
	<path d="M1344.9,178.7c-0.1-2.2-0.8-4-2.4-5.4c-1.5-1.4-3.8-2.1-6.9-2.1c-3.1,0-5.4,0.7-6.9,2.2c-1.5,1.5-2.3,3.3-2.3,5.4
		c0,1.5,0.4,2.7,1.3,3.5c0.8,0.8,2,1.5,3.4,2c1.4,0.5,3,0.9,4.8,1.2c1.8,0.3,3.6,0.6,5.4,1c1.8,0.4,3.7,0.9,5.4,1.6
		c1.8,0.6,3.4,1.5,4.8,2.7c1.4,1.2,2.5,2.7,3.4,4.6c0.8,1.9,1.3,4.3,1.3,7.1c0,2.8-0.5,5.3-1.5,7.5c-1,2.2-2.4,4.1-4.2,5.6
		c-1.8,1.5-4,2.7-6.5,3.6c-2.5,0.8-5.3,1.3-8.5,1.3c-3.1,0-5.8-0.4-8.4-1.2c-2.5-0.8-4.7-2-6.5-3.5c-1.8-1.5-3.2-3.4-4.2-5.6
		c-1-2.2-1.6-4.6-1.6-7.4h10.6c0.1,2.3,0.9,4.1,2.5,5.5c1.6,1.4,4.1,2.1,7.5,2.1c3.4,0,5.9-0.7,7.6-2.1c1.6-1.4,2.5-3.2,2.5-5.5
		c0-1.5-0.4-2.6-1.3-3.5c-0.8-0.9-2-1.6-3.4-2.1c-1.4-0.5-3-0.9-4.7-1.2c-1.8-0.3-3.6-0.6-5.4-1c-1.9-0.4-3.7-0.9-5.4-1.6
		c-1.8-0.6-3.3-1.6-4.7-2.8c-1.4-1.2-2.5-2.7-3.4-4.6c-0.8-1.9-1.3-4.2-1.3-7.1c0-2.6,0.5-5,1.4-7.3c0.9-2.2,2.3-4.1,4-5.7
		c1.7-1.6,3.8-2.8,6.2-3.7c2.4-0.9,5.1-1.3,8-1.3c2.9,0,5.5,0.4,7.9,1.3c2.3,0.8,4.4,2,6.1,3.6c1.7,1.5,3,3.4,4,5.6
		c1,2.2,1.5,4.5,1.7,7.2H1344.9z"/>
	<path d="M1376.1,219.3v-46.8h-16.6v-10.4h44v10.4H1387v46.8H1376.1z"/>
	<path d="M1434.1,219.3v-57.2h26.6c2.6,0,4.9,0.4,6.9,1.1c2,0.7,3.7,1.7,5.1,3.1c1.4,1.3,2.4,2.9,3.1,4.7c0.7,1.8,1,3.8,1,6
		c0,2.9-0.6,5.5-1.9,7.6c-1.2,2.2-3,3.8-5.4,5v0.2c3.1,1,5.5,2.7,7.2,5.2c1.7,2.5,2.6,5.4,2.6,8.9c0,2.2-0.4,4.3-1.1,6.2
		c-0.7,1.9-1.7,3.5-3.1,4.9c-1.4,1.4-3.1,2.4-5.1,3.2c-2,0.8-4.4,1.2-7.1,1.2H1434.1z M1445,172.5v12.8h14.4c2.3,0,3.9-0.6,5-1.8
		c1.1-1.2,1.6-2.7,1.6-4.5c0-1.9-0.5-3.4-1.4-4.6c-1-1.2-2.7-1.8-5.3-1.8H1445z M1445,195.3V209h16.1c2.5,0,4.4-0.7,5.5-2
		c1.1-1.3,1.7-2.9,1.7-4.8c0-1.9-0.6-3.6-1.8-4.9c-1.2-1.3-3-2-5.2-2H1445z"/>
	<path d="M1523.6,219.3v-17.1h-27.1v17.1h-10.6v-33.5c0-3.8,0.5-7.3,1.6-10.4c1-3.1,2.6-5.7,4.6-7.8c2-2.1,4.6-3.8,7.6-4.9
		c3-1.2,6.5-1.7,10.4-1.7c3.9,0,7.4,0.6,10.4,1.7c3,1.2,5.6,2.8,7.6,4.9c2.1,2.1,3.6,4.7,4.7,7.8c1.1,3.1,1.6,6.5,1.6,10.4v33.5
		H1523.6z M1523.6,185.8c0-4.6-1.1-8.2-3.4-10.7c-2.2-2.5-5.7-3.8-10.2-3.8s-8,1.3-10.2,3.8c-2.2,2.5-3.3,6.1-3.3,10.7v6.2h27.1
		V185.8z"/>
	<path d="M1571.8,178.7c-0.1-2.2-0.8-4-2.4-5.4c-1.5-1.4-3.8-2.1-6.9-2.1c-3.1,0-5.4,0.7-6.9,2.2c-1.5,1.5-2.3,3.3-2.3,5.4
		c0,1.5,0.4,2.7,1.3,3.5c0.8,0.8,2,1.5,3.4,2c1.4,0.5,3,0.9,4.8,1.2c1.8,0.3,3.6,0.6,5.4,1c1.8,0.4,3.7,0.9,5.4,1.6
		c1.8,0.6,3.4,1.5,4.8,2.7c1.4,1.2,2.5,2.7,3.4,4.6c0.8,1.9,1.3,4.3,1.3,7.1c0,2.8-0.5,5.3-1.5,7.5c-1,2.2-2.4,4.1-4.2,5.6
		c-1.8,1.5-4,2.7-6.5,3.6c-2.5,0.8-5.3,1.3-8.5,1.3c-3.1,0-5.8-0.4-8.4-1.2c-2.5-0.8-4.7-2-6.5-3.5c-1.8-1.5-3.2-3.4-4.2-5.6
		c-1-2.2-1.6-4.6-1.6-7.4h10.6c0.1,2.3,0.9,4.1,2.5,5.5c1.6,1.4,4.1,2.1,7.5,2.1c3.4,0,5.9-0.7,7.6-2.1c1.6-1.4,2.5-3.2,2.5-5.5
		c0-1.5-0.4-2.6-1.3-3.5c-0.9-0.9-2-1.6-3.4-2.1c-1.4-0.5-3-0.9-4.7-1.2c-1.8-0.3-3.6-0.6-5.4-1c-1.9-0.4-3.7-0.9-5.4-1.6
		c-1.8-0.6-3.3-1.6-4.7-2.8c-1.4-1.2-2.5-2.7-3.4-4.6c-0.9-1.9-1.3-4.2-1.3-7.1c0-2.6,0.5-5,1.4-7.3c0.9-2.2,2.3-4.1,4-5.7
		c1.7-1.6,3.8-2.8,6.2-3.7c2.4-0.9,5.1-1.3,8-1.3c2.9,0,5.5,0.4,7.9,1.3c2.3,0.8,4.4,2,6.1,3.6c1.7,1.5,3,3.4,4,5.6
		c1,2.2,1.5,4.5,1.7,7.2H1571.8z"/>
	<path d="M1602.4,195.3V209h30.1v10.3h-40.9v-57.2h40.9v10.4h-30.1v12.8h25.1v10H1602.4z"/>
	<path d="M1642.1,219.3v-57.2h19.7c4.9,0,9.1,0.7,12.8,2.1c3.7,1.4,6.8,3.3,9.3,5.8c2.5,2.5,4.4,5.5,5.6,9c1.3,3.5,1.9,7.4,1.9,11.7
		c0,4.3-0.6,8.2-1.9,11.7c-1.3,3.5-3.2,6.5-5.6,9c-2.5,2.5-5.6,4.4-9.3,5.8c-3.7,1.4-8,2.1-12.8,2.1H1642.1z M1661.8,209
		c3.2,0,6-0.4,8.3-1.3c2.3-0.9,4.2-2.1,5.8-3.7c1.5-1.6,2.7-3.5,3.4-5.7s1.1-4.8,1.1-7.6c0-5.5-1.5-10-4.5-13.2
		c-3-3.3-7.7-4.9-14.1-4.9h-8.8V209H1661.8z"/>
	<path d="M1722.7,219.3v-57.2h19.7c4.9,0,9.1,0.7,12.8,2.1s6.8,3.3,9.3,5.8c2.5,2.5,4.4,5.5,5.6,9c1.3,3.5,1.9,7.4,1.9,11.7
		c0,4.3-0.6,8.2-1.9,11.7c-1.3,3.5-3.2,6.5-5.6,9c-2.5,2.5-5.6,4.4-9.3,5.8c-3.7,1.4-8,2.1-12.8,2.1H1722.7z M1742.4,209
		c3.2,0,6-0.4,8.3-1.3c2.3-0.9,4.2-2.1,5.8-3.7c1.5-1.6,2.7-3.5,3.4-5.7c0.7-2.2,1.1-4.8,1.1-7.6c0-5.5-1.5-10-4.5-13.2
		c-3-3.3-7.7-4.9-14.1-4.9h-8.8V209H1742.4z"/>
	<path d="M1791.5,195.3V209h30.1v10.3h-40.9v-57.2h40.9v10.4h-30.1v12.8h25.1v10H1791.5z"/>
	<path d="M1858.3,178.7c-0.1-2.2-0.8-4-2.4-5.4c-1.5-1.4-3.8-2.1-6.9-2.1c-3.1,0-5.4,0.7-6.9,2.2c-1.5,1.5-2.3,3.3-2.3,5.4
		c0,1.5,0.4,2.7,1.3,3.5c0.8,0.8,2,1.5,3.4,2c1.4,0.5,3,0.9,4.8,1.2c1.8,0.3,3.6,0.6,5.4,1c1.8,0.4,3.7,0.9,5.4,1.6
		c1.8,0.6,3.4,1.5,4.8,2.7c1.4,1.2,2.5,2.7,3.4,4.6c0.8,1.9,1.3,4.3,1.3,7.1c0,2.8-0.5,5.3-1.5,7.5c-1,2.2-2.4,4.1-4.2,5.6
		c-1.8,1.5-4,2.7-6.5,3.6c-2.5,0.8-5.3,1.3-8.5,1.3c-3.1,0-5.8-0.4-8.4-1.2c-2.5-0.8-4.7-2-6.5-3.5c-1.8-1.5-3.2-3.4-4.2-5.6
		c-1-2.2-1.6-4.6-1.6-7.4h10.6c0.1,2.3,0.9,4.1,2.5,5.5c1.6,1.4,4.1,2.1,7.5,2.1c3.4,0,5.9-0.7,7.6-2.1c1.6-1.4,2.5-3.2,2.5-5.5
		c0-1.5-0.4-2.6-1.3-3.5c-0.9-0.9-2-1.6-3.4-2.1c-1.4-0.5-3-0.9-4.7-1.2c-1.8-0.3-3.6-0.6-5.4-1c-1.9-0.4-3.7-0.9-5.4-1.6
		c-1.8-0.6-3.3-1.6-4.7-2.8c-1.4-1.2-2.5-2.7-3.4-4.6c-0.9-1.9-1.3-4.2-1.3-7.1c0-2.6,0.5-5,1.4-7.3c0.9-2.2,2.3-4.1,4-5.7
		c1.7-1.6,3.8-2.8,6.2-3.7c2.4-0.9,5.1-1.3,8-1.3c2.9,0,5.5,0.4,7.9,1.3c2.3,0.8,4.4,2,6.1,3.6c1.7,1.5,3,3.4,4,5.6
		c1,2.2,1.5,4.5,1.7,7.2H1858.3z"/>
	<path d="M1878.2,219.3v-57.2h10.9v57.2H1878.2z"/>
	<path d="M1943.2,180.3c-1.5-2.8-3.6-5-6.4-6.6c-2.8-1.6-5.9-2.4-9.5-2.4c-2.8,0-5.3,0.5-7.6,1.4c-2.3,1-4.2,2.3-5.8,4
		c-1.6,1.7-2.9,3.8-3.8,6.1c-0.9,2.4-1.4,4.9-1.4,7.7c0,2.8,0.5,5.4,1.4,7.7c0.9,2.4,2.2,4.4,3.8,6.2c1.6,1.7,3.6,3.1,5.8,4.1
		c2.3,1,4.8,1.4,7.6,1.4c4.4,0,8.1-1,11.2-3.1c3-2,5.2-4.9,6.5-8.7v-0.2h-21.1v-10h32.9v5.3c-0.3,3.9-1.3,7.5-2.8,10.8
		c-1.6,3.3-3.6,6.1-6.2,8.5c-2.6,2.4-5.6,4.2-9.1,5.6c-3.5,1.3-7.2,2-11.3,2c-4.4,0-8.3-0.7-11.9-2.2c-3.6-1.5-6.7-3.6-9.3-6.2
		c-2.6-2.7-4.7-5.8-6.1-9.4c-1.4-3.6-2.2-7.6-2.2-11.9c0-4.3,0.7-8.2,2.2-11.8c1.4-3.6,3.5-6.8,6.1-9.4c2.6-2.7,5.7-4.7,9.3-6.2
		c3.6-1.5,7.6-2.2,11.9-2.2c3.4,0,6.6,0.5,9.6,1.4c3,0.9,5.7,2.2,8.1,3.9c2.4,1.7,4.5,3.7,6.2,6.1c1.8,2.4,3.1,5,4.1,7.9H1943.2z"/>
	<path d="M2000,219.3v-34.4c0-4.3-1.1-7.6-3.2-9.9c-2.1-2.4-5.3-3.5-9.6-3.5c-4.2,0-7.4,1.2-9.6,3.5c-2.1,2.4-3.2,5.7-3.2,9.9v34.4
		h-10.9v-34.4c0-3.7,0.5-7,1.6-9.9c1-2.9,2.6-5.4,4.5-7.5c2-2.1,4.4-3.7,7.4-4.8c2.9-1.1,6.3-1.7,10.1-1.7c3.8,0,7.2,0.6,10.1,1.7
		c2.9,1.1,5.4,2.7,7.4,4.8c2,2.1,3.5,4.6,4.5,7.5c1,2.9,1.6,6.3,1.6,9.9v34.4H2000z"/>
</g>
<line class="st2" x1="1099.8" y1="42.3" x2="1097.8" y2="347.8"/>
</svg>
